<svg version="1.0" xmlns="http://www.w3.org/2000/svg" width="933.333" height="933.333" viewBox="0 0 700 700"><path d="M87 350v306h110V525h306v131h110V44H503v131H197V44H87v306zm66-230v11h-22v-10.3c0-5.7.3-10.7.7-11 .3-.4 5.3-.7 11-.7H153v11zm415.8.2.3 10.8H547v-22.1l10.8.3 10.7.3.3 10.7zM153 186v11h-22v-22h22v11zm416 0v11h-22v-22h22v11zm-66 164v131H197V219h306v131zm-350-98.5V262h-22v-21h22v10.5zm416 0V262h-22v-21h22v10.5zM153 317v11h-22v-10.3c0-5.7.3-10.7.7-11 .3-.4 5.3-.7 11-.7H153v11zm415.8.2.3 10.8H547v-22.1l10.8.3 10.7.3.3 10.7zM153 383v11.1l-10.7-.3-10.8-.3-.3-10.8-.3-10.7H153v11zm415.8-.3-.3 10.8-10.7.3-10.8.3V372h22.1l-.3 10.7zM153 448.5V459h-22v-21h22v10.5zm416 0V459h-22v-21h22v10.5zM153 514v11h-22v-22h22v11zm416 0v11h-22v-22h22v11zm-416 66v11.1l-10.7-.3-10.8-.3-.3-10.8-.3-10.7H153v11zm415.8-.3-.3 10.8-10.7.3-10.8.3V569h22.1l-.3 10.7z"/><path d="M219 350v109h262V241H219v109zM219 98.5V153h262V44H219v54.5zM219 601.5V656h262V547H219v54.5z"/></svg>