<svg xmlns="http://www.w3.org/2000/svg" aria-hidden="true" style="width:0;height:0;position:absolute;overflow:hidden"><defs><symbol id="icon-arrow-left" viewBox="0 0 32 32"><path stroke-linecap="round" stroke-linejoin="round" stroke-width="2.667" d="M25.333 16H6.666m9.333 9.333L6.666 16l9.333-9.333"/></symbol><symbol id="icon-arrow-right" viewBox="0 0 32 32"><path stroke-linecap="round" stroke-linejoin="round" stroke-width="2.667" d="M6.667 16h18.667m-9.333 9.333L25.334 16l-9.333-9.333"/></symbol><symbol id="close" viewBox="7 5 20 20"><path d="m26.667 7.303-1.97-1.97-7.808 7.808-7.808-7.808-1.97 1.97 7.808 7.808-7.808 7.808 1.97 1.97 7.808-7.808 7.808 7.808 1.97-1.97-7.808-7.808 7.808-7.808z"/></symbol><symbol id="icon-heart" viewBox="0 0 32 32"><path fill="#b92f2c" d="m16 30.583-2.24-2.24C5.44 20.983 0 16.023 0 9.943c0-4.96 3.84-8.8 8.8-8.8 2.72 0 5.44 1.28 7.2 3.36 1.76-2.08 4.48-3.36 7.2-3.36 4.96 0 8.8 3.84 8.8 8.8 0 6.08-5.44 11.04-13.76 18.4L16 30.583z" style="fill:var(--color1,#b92f2c)"/></symbol><symbol id="icon-logo" viewBox="0 0 32 32"><path fill="none" stroke="#fff" stroke-linecap="round" stroke-linejoin="round" stroke-width="2.17" d="M26.427 2.667H5.574a2.907 2.907 0 0 0-2.907 2.907v20.853a2.907 2.907 0 0 0 2.907 2.907h20.853a2.907 2.907 0 0 0 2.907-2.907V5.574a2.907 2.907 0 0 0-2.907-2.907zm-17.094 0v26.667M22.667 2.667v26.667M2.667 16h26.667M2.667 9.333h6.667M2.667 22.667h6.667m13.333 0h6.667M22.667 9.333h6.667" style="stroke:var(--color2,#fff)"/></symbol><symbol id="icon-search" viewBox="0 0 32 32"><path d="m31.008 27.231-7.58-6.447c-.784-.705-1.622-1.029-2.299-.998a11.954 11.954 0 0 0 2.87-7.787c0-6.627-5.373-12-12-12s-12 5.373-12 12 5.373 12 12 12c2.972 0 5.691-1.081 7.787-2.87-.031.677.293 1.515.998 2.299l6.447 7.58c1.104 1.226 2.907 1.33 4.007.23s.997-2.903-.23-4.007zM12 20a8 8 0 1 1 0-16 8 8 0 0 1 0 16z"/></symbol><symbol id="icon-icon-up" viewBox="0 0 32 32"><path d="M11.1 8.6c-2.95 2.9-4.1 4.4-4 5.1.25 1.85 2.15 1.55 4.65-.75l2.25-2.1v7.35c0 7.65.35 9.3 2 9.3s2-1.65 2-9.3v-7.35l2.25 2.1c2.55 2.35 4.4 2.6 4.65.75.1-.8-.95-2.15-4-5.15-2.3-2.2-4.5-4.05-4.9-4.05s-2.6 1.85-4.9 4.1z"/></symbol><symbol id="icon-moon" viewBox="0 0 32 32"><path d="M16.7 1.55c-2.9.85-6.3 3.55-7.85 6.3C7.3 10.7 6.3 16.5 7.45 16.5c.3 0 .55-.75.55-1.65 0-4.05 2.25-8.4 5.5-10.55C15.2 3.2 18 2.1 18 2.55c0 .1-.35 1.1-.75 2.2-1.45 4.1-.65 8.65 2.25 12.8 1.45 2 5.15 4.05 8.5 4.75l2.75.55-2.15 1.55c-1.2.85-2.8 1.7-3.65 1.85-1.45.35-2.05 1.25-.8 1.25S30 24.9 31 23.65c1.4-1.8 1.25-2.15-.9-2.15-9.2 0-15.3-9.8-11.15-17.95.6-1.1 1.05-2.15 1.05-2.3 0-.35-1.5-.25-3.3.3z"/><path d="M22.25 11.1C18.2 14.9 19.5 17 25.9 17c3.45 0 4.25-.15 5.1-1 1.05-1.05 1.25-2.3.6-3.35-.7-1.1-4.85-3.65-5.95-3.65-.65 0-2.1.9-3.4 2.1zm5.35-.25c.5.45 1.4 1.05 2 1.35 1.35.65 1.75 2.05.9 3.05-.9 1.05-8.15 1.05-9 0-.75-.9-.35-2.15.8-2.6.55-.2 1.15.05 1.75.75.45.6 1 1.1 1.15 1.1.65 0 .25-1.4-.7-2.25-.75-.7-.85-1.05-.45-1.6.8-.9 2.45-.8 3.55.2zM7.4 17.8c-.8.4-1.4 1.05-1.4 1.45 0 .6.3.55 1.65-.25.85-.55 2.15-1 2.85-1 1.65 0 4.35 1.65 4.75 2.95.15.6.7 1.05 1.15 1.05 2.45 0 4.15 3 3.1 5.5-.85 2.1-2.4 2.5-9.55 2.5-6.25 0-6.55-.05-7.7-1.25C1.55 28.1 1 27.05 1 26.5 1 25.15 3.15 23 4.5 23 5.6 23 8 25.05 8 26c0 .25.25.5.5.5 1 0 .5-1.6-.95-3.05-2-1.95-4.1-1.95-6.1 0-1.95 2-1.95 4.1 0 6.1L2.9 31h14.7l1.7-1.7c2.6-2.6 1.95-6.45-1.3-7.8-.85-.35-1.75-1.05-2.05-1.6-1.35-2.55-5.8-3.65-8.55-2.1z"/><path d="M4.5 21c0 .25.25.5.5.5.3 0 .5-.25.5-.5 0-.3-.2-.5-.5-.5-.25 0-.5.2-.5.5zm17 6.5c0 .25.25.5.5.5.3 0 .5-.25.5-.5 0-.3-.2-.5-.5-.5-.25 0-.5.2-.5.5z"/></symbol><symbol id="icon-sun" viewBox="0 0 32 32"><path d="M15.68 4.32c0 .96.16 1.76.32 1.76.192 0 .32-.8.32-1.76s-.128-1.76-.32-1.76c-.16 0-.32.8-.32 1.76zm-6.4.32c0 .48 1.344 2.72 1.6 2.72.448 0 .416-.192-.384-1.6-.64-1.12-1.216-1.632-1.216-1.12zm12.256 1.12c-.832 1.408-.864 1.6-.416 1.6.256 0 1.6-2.24 1.6-2.72 0-.512-.576 0-1.184 1.12zm-8.544 1.472c-2.272.704-5.088 3.584-5.76 5.888-1.088 3.68-.384 6.592 2.336 9.312s5.632 3.424 9.312 2.336c2.4-.704 5.184-3.488 5.888-5.888 1.088-3.68.384-6.592-2.336-9.312-2.72-2.688-5.76-3.456-9.44-2.336zm7.232 1.312c2.944 1.632 4.672 4.96 4.32 8.352-.48 4.64-4.768 8.128-9.44 7.648-4.64-.48-8.128-4.768-7.648-9.44.352-3.264 2.944-6.432 6.112-7.424 1.824-.544 4.8-.16 6.656.864z"/><path d="M12.96 9.408c-1.92.896-2.784 1.792-3.648 3.712-1.152 2.528-.608 5.856 1.344 7.968.928 1.024 3.68 2.272 4.864 2.24.768-.032.672-.096-.48-.32-5.12-.992-7.616-6.4-4.928-10.72 1.344-2.176 3.744-3.456 6.208-3.232.96.064 2.048.224 2.4.352.352.096.224 0-.32-.256-1.44-.704-3.616-.608-5.44.256zm7.04.832c.096.16.352.32.512.32.192 0 .224-.16.128-.32a.653.653 0 0 0-.512-.32c-.192 0-.224.128-.128.32z"/><path d="M12.096 13.152c-.32.16-.576.544-.576.768 0 .64.512.608.768 0 .096-.256.384-.48.672-.48s.576.224.672.48c.256.608.768.608.768 0 0-.448-.928-1.12-1.504-1.12-.128 0-.512.16-.8.352zm6.08 0c-.32.16-.576.544-.576.768 0 .64.512.608.768 0 .096-.256.384-.48.672-.48s.576.224.672.48c.256.608.768.608.768 0 0-.448-.928-1.12-1.504-1.12-.128 0-.512.16-.8.352zm-6.208 4.032c.352 1.44 1.28 2.464 2.688 2.976 1.184.416 1.504.416 2.688 0 1.408-.512 2.336-1.536 2.688-2.976l.192-.864h-8.448l.192.864zm7.712.16c-.352 1.184-.608 1.248-2.176.832-1.216-.32-1.792-.32-3.008 0-1.568.416-1.824.352-2.176-.832-.192-.704-.192-.704 3.68-.704s3.872 0 3.68.704zm-1.888 1.216c.832.32.832.384.32.896-.736.736-3.488.736-4.224 0-.544-.512-.512-.576.224-.864 1.024-.416 2.624-.416 3.68-.032zm.896 4.032c-.576.448-.576.48.128.128.384-.192.704-.416.704-.48 0-.256-.16-.192-.832.352zM4.48 9.504c0 .256 2.336 1.696 2.688 1.696.608 0 0-.736-1.088-1.28-1.376-.704-1.6-.768-1.6-.416zm21.376.448c-1.024.544-1.632 1.248-1.024 1.248.352 0 2.688-1.44 2.688-1.696 0-.352-.352-.256-1.664.448zM2.56 16c0 .16.8.32 1.76.32s1.76-.16 1.76-.32c0-.192-.8-.32-1.76-.32s-1.76.128-1.76.32zm23.36 0c0 .16.8.32 1.76.32s1.76-.16 1.76-.32c0-.192-.8-.32-1.76-.32s-1.76.128-1.76.32zM5.76 21.504c-1.44.896-1.408.864-1.216 1.088.256.256 2.816-1.088 2.816-1.472 0-.48-.352-.384-1.6.384zm18.88-.384c0 .256 2.24 1.6 2.72 1.6.512 0 0-.576-1.12-1.216-1.408-.8-1.6-.832-1.6-.384zm-14.72 4.8c-.704 1.376-.768 1.6-.384 1.6.224 0 1.664-2.336 1.664-2.688 0-.608-.736 0-1.28 1.088zm10.88-1.088c0 .352 1.44 2.688 1.696 2.688.352 0 .288-.224-.416-1.6-.544-1.088-1.28-1.696-1.28-1.088zm-5.12 2.848c0 .96.16 1.76.32 1.76.192 0 .32-.8.32-1.76s-.128-1.76-.32-1.76c-.16 0-.32.8-.32 1.76z"/></symbol><symbol id="icon-linkedin" viewBox="0 0 16 16"><path d="M0 1.146C0 .513.526 0 1.175 0h13.65C15.474 0 16 .513 16 1.146v13.708c0 .633-.526 1.146-1.175 1.146H1.175C.526 16 0 15.487 0 14.854V1.146zm4.943 12.248V6.169H2.542v7.225h2.401zm-1.2-8.212c.837 0 1.358-.554 1.358-1.248-.015-.709-.52-1.248-1.342-1.248-.822 0-1.359.54-1.359 1.248 0 .694.521 1.248 1.327 1.248h.016zm4.908 8.212V9.359c0-.216.016-.432.08-.586.173-.431.568-.878 1.232-.878.869 0 1.216.662 1.216 1.634v3.865h2.401V9.25c0-2.22-1.184-3.252-2.764-3.252-1.274 0-1.845.7-2.165 1.193v.025h-.016a5.54 5.54 0 0 1 .016-.025V6.169h-2.4c.03.678 0 7.225 0 7.225h2.4z"/></symbol><symbol id="icon-github" viewBox="0 0 16 16"><path d="M8 0C3.58 0 0 3.58 0 8c0 3.54 2.29 6.53 5.47 7.59.4.07.55-.17.55-.38 0-.19-.01-.82-.01-1.49-2.01.37-2.53-.49-2.69-.94-.09-.23-.48-.94-.82-1.13-.28-.15-.68-.52-.01-.53.63-.01 1.08.58 1.23.82.72 1.21 1.87.87 2.33.66.07-.52.28-.87.51-1.07-1.78-.2-3.64-.89-3.64-3.95 0-.87.31-1.59.82-2.15-.08-.2-.36-1.02.08-2.12 0 0 .67-.21 2.2.82.64-.18 1.32-.27 2-.27.68 0 1.36.09 2 .27 1.53-1.04 2.2-.82 2.2-.82.44 1.1.16 1.92.08 2.12.51.56.82 1.27.82 2.15 0 3.07-1.87 3.75-3.65 3.95.29.25.54.73.54 1.48 0 1.07-.01 1.93-.01 2.2 0 .21.15.46.55.38A8.012 8.012 0 0 0 16 8c0-4.42-3.58-8-8-8z"/></symbol></defs></svg>