<svg xmlns="http://www.w3.org/2000/svg" aria-hidden="true" style="position:absolute;width:0;height:0;overflow:hidden">
  <defs>
    
    <symbol id="close" viewBox="7 5 20 20">
      <path d="m26.667 7.303-1.97-1.97-7.808 7.808-7.808-7.808-1.97 1.97 7.808 7.808-7.808 7.808 1.97 1.97 7.808-7.808 7.808 7.808 1.97-1.97-7.808-7.808 7.808-7.808z"/>
    </symbol>

     <!-- <symbol id="close-menu" viewBox="0 0 32 32">
      <path d="M23.733 10.304 22.229 8.8l-5.963 5.963L10.303 8.8l-1.504 1.504 5.963 5.963-5.963 5.963 1.504 1.504 5.963-5.963 5.963 5.963 1.504-1.504-5.963-5.963 5.963-5.963z"/>
    </symbol>
    <symbol id="icon-close" viewBox="0 0 32 32">
    <path d="m7.779 9.287 1.508-1.508 14.934 14.934-1.508 1.508L7.779 9.287z"/><path d="M7.779 22.713 22.713 7.779l1.508 1.508L9.287 24.221l-1.508-1.508z"/>
    </symbol> -->
  </defs>
</svg>
