<svg xmlns="http://www.w3.org/2000/svg" aria-hidden="true" style="position:absolute;width:0;height:0;overflow:hidden">
  <defs>
    <symbol id="icon-arrow-left" viewBox="0 0 32 32">
      <path stroke-linecap="round" stroke-linejoin="round" stroke-width="2.667" d="M25.333 16H6.666M15.999 25.333 6.666 16l9.333-9.333"/>
    </symbol>
    <symbol id="icon-arrow-right" viewBox="0 0 32 32">
      <path stroke-linecap="round" stroke-linejoin="round" stroke-width="2.667" d="M6.667 16h18.667M16.001 25.333 25.334 16l-9.333-9.333"/>
    </symbol>
    <symbol id="close" viewBox="7 5 20 20">
      <path d="m26.667 7.303-1.97-1.97-7.808 7.808-7.808-7.808-1.97 1.97 7.808 7.808-7.808 7.808 1.97 1.97 7.808-7.808 7.808 7.808 1.97-1.97-7.808-7.808 7.808-7.808z"/>
    </symbol>
    <symbol id="icon-heart" viewBox="0 0 32 32">
      <path fill="#b92f2c" d="m16 30.583-2.24-2.24C5.44 20.983 0 16.023 0 9.943c0-4.96 3.84-8.8 8.8-8.8 2.72 0 5.44 1.28 7.2 3.36 1.76-2.08 4.48-3.36 7.2-3.36 4.96 0 8.8 3.84 8.8 8.8 0 6.08-5.44 11.04-13.76 18.4L16 30.583z" style="fill:var(--color1, #b92f2c)"/>
    </symbol>
    <symbol id="icon-logo" viewBox="0 0 32 32">
      <path fill="none" stroke="#fff" stroke-linecap="round" stroke-linejoin="round" stroke-width="2.17" d="M26.427 2.667H5.574a2.907 2.907 0 0 0-2.907 2.907v20.853a2.907 2.907 0 0 0 2.907 2.907h20.853a2.907 2.907 0 0 0 2.907-2.907V5.574a2.907 2.907 0 0 0-2.907-2.907zM9.333 2.667v26.667M22.667 2.667v26.667M2.667 16h26.667M2.667 9.333h6.667M2.667 22.667h6.667M22.667 22.667h6.667M22.667 9.333h6.667" style="stroke:var(--color2, #fff)"/>
    </symbol>
    <symbol id="icon-search" viewBox="0 0 32 32">
  <path d="M31.008 27.231l-7.58-6.447c-0.784-0.705-1.622-1.029-2.299-0.998 1.789-2.096 2.87-4.815 2.87-7.787 0-6.627-5.373-12-12-12s-12 5.373-12 12 5.373 12 12 12c2.972 0 5.691-1.081 7.787-2.87-0.031 0.677 0.293 1.515 0.998 2.299l6.447 7.58c1.104 1.226 2.907 1.33 4.007 0.23s0.997-2.903-0.23-4.007zM12 20c-4.418 0-8-3.582-8-8s3.582-8 8-8 8 3.582 8 8-3.582 8-8 8z"></path>
    </symbol>
    <symbol id="icon-icon-up" viewBox="0 0 32 32">
    <path d="M11.1 8.6c-2.95 2.9-4.1 4.4-4 5.1 0.25 1.85 2.15 1.55 4.65-0.75l2.25-2.1v7.35c0 7.65 0.35 9.3 2 9.3s2-1.65 2-9.3v-7.35l2.25 2.1c2.55 2.35 4.4 2.6 4.65 0.75 0.1-0.8-0.95-2.15-4-5.15-2.3-2.2-4.5-4.050-4.9-4.050s-2.6 1.85-4.9 4.1z"></path>
    </symbol>
  </defs>
</svg>
