<svg xmlns="http://www.w3.org/2000/svg" aria-hidden="true" style="position:absolute;width:0;height:0;overflow:hidden">
  <defs>
    <symbol id="icon-arrow-left" viewBox="0 0 32 32">
      <path stroke-linecap="round" stroke-linejoin="round" stroke-width="2.667" d="M25.333 16H6.666M15.999 25.333 6.666 16l9.333-9.333"/>
    </symbol>
    <symbol id="icon-arrow-right" viewBox="0 0 32 32">
      <path stroke-linecap="round" stroke-linejoin="round" stroke-width="2.667" d="M6.667 16h18.667M16.001 25.333 25.334 16l-9.333-9.333"/>
    </symbol>
    <symbol id="close" viewBox="7 5 20 20">
      <path d="m26.667 7.303-1.97-1.97-7.808 7.808-7.808-7.808-1.97 1.97 7.808 7.808-7.808 7.808 1.97 1.97 7.808-7.808 7.808 7.808 1.97-1.97-7.808-7.808 7.808-7.808z"/>
    </symbol>
    <symbol id="icon-heart" viewBox="0 0 32 32">
      <path fill="#b92f2c" d="m16 30.583-2.24-2.24C5.44 20.983 0 16.023 0 9.943c0-4.96 3.84-8.8 8.8-8.8 2.72 0 5.44 1.28 7.2 3.36 1.76-2.08 4.48-3.36 7.2-3.36 4.96 0 8.8 3.84 8.8 8.8 0 6.08-5.44 11.04-13.76 18.4L16 30.583z" style="fill:var(--color1, #b92f2c)"/>
    </symbol>
    <symbol id="icon-logo" viewBox="0 0 32 32">
      <path fill="none" stroke="#fff" stroke-linecap="round" stroke-linejoin="round" stroke-width="2.17" d="M26.427 2.667H5.574a2.907 2.907 0 0 0-2.907 2.907v20.853a2.907 2.907 0 0 0 2.907 2.907h20.853a2.907 2.907 0 0 0 2.907-2.907V5.574a2.907 2.907 0 0 0-2.907-2.907zM9.333 2.667v26.667M22.667 2.667v26.667M2.667 16h26.667M2.667 9.333h6.667M2.667 22.667h6.667M22.667 22.667h6.667M22.667 9.333h6.667" style="stroke:var(--color2, #fff)"/>
    </symbol>
    <symbol id="icon-search" viewBox="0 0 32 32">
      <path stroke-linecap="round" stroke-linejoin="round" stroke-width="2" d="M14.667 25.333c5.891 0 10.667-4.776 10.667-10.667S20.558 3.999 14.667 3.999 4 8.775 4 14.666s4.776 10.667 10.667 10.667zM28 28l-5.8-5.8"/>
    </symbol>
    <symbol id="icon-icon-up" viewBox="0 0 32 32">
      <path d="M11.1 8.6c-2.95 2.9-4.1 4.4-4 5.1 0.25 1.85 2.15 1.55 4.65-0.75l2.25-2.1v7.35c0 7.65 0.35 9.3 2 9.3s2-1.65 2-9.3v-7.35l2.25 2.1c2.55 2.35 4.4 2.6 4.65 0.75 0.1-0.8-0.95-2.15-4-5.15-2.3-2.2-4.5-4.050-4.9-4.050s-2.6 1.85-4.9 4.1z"></path>
    </symbol>
    <symbol id="icon-moon" viewBox="0 0 32 32">
      <path d="M16.7 1.55c-2.9 0.85-6.3 3.55-7.85 6.3-1.55 2.85-2.55 8.65-1.4 8.65 0.3 0 0.55-0.75 0.55-1.65 0-4.050 2.25-8.4 5.5-10.55 1.7-1.1 4.5-2.2 4.5-1.75 0 0.1-0.35 1.1-0.75 2.2-1.45 4.1-0.65 8.65 2.25 12.8 1.45 2 5.15 4.050 8.5 4.75l2.75 0.55-2.15 1.55c-1.2 0.85-2.8 1.7-3.65 1.85-1.45 0.35-2.050 1.25-0.8 1.25s5.85-2.6 6.85-3.85c1.4-1.8 1.25-2.15-0.9-2.15-9.2 0-15.3-9.8-11.15-17.95 0.6-1.1 1.050-2.15 1.050-2.3 0-0.35-1.5-0.25-3.3 0.3z"></path>
      <path d="M22.25 11.1c-4.050 3.8-2.75 5.9 3.65 5.9 3.45 0 4.25-0.15 5.1-1 1.050-1.050 1.25-2.3 0.6-3.35-0.7-1.1-4.85-3.65-5.95-3.65-0.65 0-2.1 0.9-3.4 2.1zM27.6 10.85c0.5 0.45 1.4 1.050 2 1.35 1.35 0.65 1.75 2.050 0.9 3.050-0.9 1.050-8.15 1.050-9 0-0.75-0.9-0.35-2.15 0.8-2.6 0.55-0.2 1.15 0.050 1.75 0.75 0.45 0.6 1 1.1 1.15 1.1 0.65 0 0.25-1.4-0.7-2.25-0.75-0.7-0.85-1.050-0.45-1.6 0.8-0.9 2.45-0.8 3.55 0.2zM7.4 17.8c-0.8 0.4-1.4 1.050-1.4 1.45 0 0.6 0.3 0.55 1.65-0.25 0.85-0.55 2.15-1 2.85-1 1.65 0 4.35 1.65 4.75 2.95 0.15 0.6 0.7 1.050 1.15 1.050 2.45 0 4.15 3 3.1 5.5-0.85 2.1-2.4 2.5-9.55 2.5-6.25 0-6.55-0.050-7.7-1.25-0.7-0.65-1.25-1.7-1.25-2.25 0-1.35 2.15-3.5 3.5-3.5 1.1 0 3.5 2.050 3.5 3 0 0.25 0.25 0.5 0.5 0.5 1 0 0.5-1.6-0.95-3.050-2-1.95-4.1-1.95-6.1 0-1.95 2-1.95 4.1 0 6.1l1.45 1.45h14.7l1.7-1.7c2.6-2.6 1.95-6.45-1.3-7.8-0.85-0.35-1.75-1.050-2.050-1.6-1.35-2.55-5.8-3.65-8.55-2.1z"></path>
      <path d="M4.5 21c0 0.25 0.25 0.5 0.5 0.5 0.3 0 0.5-0.25 0.5-0.5 0-0.3-0.2-0.5-0.5-0.5-0.25 0-0.5 0.2-0.5 0.5zM21.5 27.5c0 0.25 0.25 0.5 0.5 0.5 0.3 0 0.5-0.25 0.5-0.5 0-0.3-0.2-0.5-0.5-0.5-0.25 0-0.5 0.2-0.5 0.5z"></path>
    </symbol>
    <symbol id="icon-sun" viewBox="0 0 32 32">
      <path d="M15.68 4.32c0 0.96 0.16 1.76 0.32 1.76 0.192 0 0.32-0.8 0.32-1.76s-0.128-1.76-0.32-1.76c-0.16 0-0.32 0.8-0.32 1.76zM9.28 4.64c0 0.48 1.344 2.72 1.6 2.72 0.448 0 0.416-0.192-0.384-1.6-0.64-1.12-1.216-1.632-1.216-1.12zM21.536 5.76c-0.832 1.408-0.864 1.6-0.416 1.6 0.256 0 1.6-2.24 1.6-2.72 0-0.512-0.576 0-1.184 1.12zM12.992 7.232c-2.272 0.704-5.088 3.584-5.76 5.888-1.088 3.68-0.384 6.592 2.336 9.312s5.632 3.424 9.312 2.336c2.4-0.704 5.184-3.488 5.888-5.888 1.088-3.68 0.384-6.592-2.336-9.312-2.72-2.688-5.76-3.456-9.44-2.336zM20.224 8.544c2.944 1.632 4.672 4.96 4.32 8.352-0.48 4.64-4.768 8.128-9.44 7.648-4.64-0.48-8.128-4.768-7.648-9.44 0.352-3.264 2.944-6.432 6.112-7.424 1.824-0.544 4.8-0.16 6.656 0.864z"></path>
      <path d="M12.96 9.408c-1.92 0.896-2.784 1.792-3.648 3.712-1.152 2.528-0.608 5.856 1.344 7.968 0.928 1.024 3.68 2.272 4.864 2.24 0.768-0.032 0.672-0.096-0.48-0.32-5.12-0.992-7.616-6.4-4.928-10.72 1.344-2.176 3.744-3.456 6.208-3.232 0.96 0.064 2.048 0.224 2.4 0.352 0.352 0.096 0.224 0-0.32-0.256-1.44-0.704-3.616-0.608-5.44 0.256zM20 10.24c0.096 0.16 0.352 0.32 0.512 0.32 0.192 0 0.224-0.16 0.128-0.32-0.096-0.192-0.352-0.32-0.512-0.32-0.192 0-0.224 0.128-0.128 0.32z"></path>
      <path d="M12.096 13.152c-0.32 0.16-0.576 0.544-0.576 0.768 0 0.64 0.512 0.608 0.768 0 0.096-0.256 0.384-0.48 0.672-0.48s0.576 0.224 0.672 0.48c0.256 0.608 0.768 0.608 0.768 0 0-0.448-0.928-1.12-1.504-1.12-0.128 0-0.512 0.16-0.8 0.352zM18.176 13.152c-0.32 0.16-0.576 0.544-0.576 0.768 0 0.64 0.512 0.608 0.768 0 0.096-0.256 0.384-0.48 0.672-0.48s0.576 0.224 0.672 0.48c0.256 0.608 0.768 0.608 0.768 0 0-0.448-0.928-1.12-1.504-1.12-0.128 0-0.512 0.16-0.8 0.352zM11.968 17.184c0.352 1.44 1.28 2.464 2.688 2.976 1.184 0.416 1.504 0.416 2.688 0 1.408-0.512 2.336-1.536 2.688-2.976l0.192-0.864h-8.448l0.192 0.864zM19.68 17.344c-0.352 1.184-0.608 1.248-2.176 0.832-1.216-0.32-1.792-0.32-3.008 0-1.568 0.416-1.824 0.352-2.176-0.832-0.192-0.704-0.192-0.704 3.68-0.704s3.872 0 3.68 0.704zM17.792 18.56c0.832 0.32 0.832 0.384 0.32 0.896-0.736 0.736-3.488 0.736-4.224 0-0.544-0.512-0.512-0.576 0.224-0.864 1.024-0.416 2.624-0.416 3.68-0.032zM18.688 22.592c-0.576 0.448-0.576 0.48 0.128 0.128 0.384-0.192 0.704-0.416 0.704-0.48 0-0.256-0.16-0.192-0.832 0.352zM4.48 9.504c0 0.256 2.336 1.696 2.688 1.696 0.608 0 0-0.736-1.088-1.28-1.376-0.704-1.6-0.768-1.6-0.416zM25.856 9.952c-1.024 0.544-1.632 1.248-1.024 1.248 0.352 0 2.688-1.44 2.688-1.696 0-0.352-0.352-0.256-1.664 0.448zM2.56 16c0 0.16 0.8 0.32 1.76 0.32s1.76-0.16 1.76-0.32c0-0.192-0.8-0.32-1.76-0.32s-1.76 0.128-1.76 0.32zM25.92 16c0 0.16 0.8 0.32 1.76 0.32s1.76-0.16 1.76-0.32c0-0.192-0.8-0.32-1.76-0.32s-1.76 0.128-1.76 0.32zM5.76 21.504c-1.44 0.896-1.408 0.864-1.216 1.088 0.256 0.256 2.816-1.088 2.816-1.472 0-0.48-0.352-0.384-1.6 0.384zM24.64 21.12c0 0.256 2.24 1.6 2.72 1.6 0.512 0 0-0.576-1.12-1.216-1.408-0.8-1.6-0.832-1.6-0.384zM9.92 25.92c-0.704 1.376-0.768 1.6-0.384 1.6 0.224 0 1.664-2.336 1.664-2.688 0-0.608-0.736 0-1.28 1.088zM20.8 24.832c0 0.352 1.44 2.688 1.696 2.688 0.352 0 0.288-0.224-0.416-1.6-0.544-1.088-1.28-1.696-1.28-1.088zM15.68 27.68c0 0.96 0.16 1.76 0.32 1.76 0.192 0 0.32-0.8 0.32-1.76s-0.128-1.76-0.32-1.76c-0.16 0-0.32 0.8-0.32 1.76z"></path>
    </symbol>
  </defs>
</svg>
