<?xml version="1.0" standalone="no"?>
<!DOCTYPE svg PUBLIC "-//W3C//DTD SVG 20010904//EN"
 "http://www.w3.org/TR/2001/REC-SVG-20010904/DTD/svg10.dtd">
<svg version="1.0" xmlns="http://www.w3.org/2000/svg"
 width="700.000000pt" height="700.000000pt" viewBox="0 0 700.000000 700.000000"
 preserveAspectRatio="xMidYMid meet">
<metadata>
Created by potrace 1.14, written by Peter Selinger 2001-2017
</metadata>
<g transform="translate(0.000000,700.000000) scale(0.100000,-0.100000)"
fill="#000000" stroke="none">
<path d="M870 3500 l0 -3060 550 0 550 0 0 655 0 655 1530 0 1530 0 0 -655 0
-655 550 0 550 0 0 3060 0 3060 -550 0 -550 0 0 -655 0 -655 -1530 0 -1530 0
0 655 0 655 -550 0 -550 0 0 -3060z m660 2300 l0 -110 -110 0 -110 0 0 103 c0
57 3 107 7 110 3 4 53 7 110 7 l103 0 0 -110z m4158 -2 l3 -108 -111 0 -110 0
0 110 0 111 108 -3 107 -3 3 -107z m-4158 -658 l0 -110 -110 0 -110 0 0 110 0
110 110 0 110 0 0 -110z m4160 0 l0 -110 -110 0 -110 0 0 110 0 110 110 0 110
0 0 -110z m-660 -1640 l0 -1310 -1530 0 -1530 0 0 1310 0 1310 1530 0 1530 0
0 -1310z m-3500 985 l0 -105 -110 0 -110 0 0 105 0 105 110 0 110 0 0 -105z
m4160 0 l0 -105 -110 0 -110 0 0 105 0 105 110 0 110 0 0 -105z m-4160 -655
l0 -110 -110 0 -110 0 0 103 c0 57 3 107 7 110 3 4 53 7 110 7 l103 0 0 -110z
m4158 -2 l3 -108 -111 0 -110 0 0 110 0 111 108 -3 107 -3 3 -107z m-4158
-658 l0 -111 -107 3 -108 3 -3 108 -3 107 111 0 110 0 0 -110z m4158 3 l-3
-108 -107 -3 -108 -3 0 111 0 110 110 0 111 0 -3 -107z m-4158 -658 l0 -105
-110 0 -110 0 0 105 0 105 110 0 110 0 0 -105z m4160 0 l0 -105 -110 0 -110 0
0 105 0 105 110 0 110 0 0 -105z m-4160 -655 l0 -110 -110 0 -110 0 0 110 0
110 110 0 110 0 0 -110z m4160 0 l0 -110 -110 0 -110 0 0 110 0 110 110 0 110
0 0 -110z m-4160 -660 l0 -111 -107 3 -108 3 -3 108 -3 107 111 0 110 0 0
-110z m4158 3 l-3 -108 -107 -3 -108 -3 0 111 0 110 110 0 111 0 -3 -107z"/>
<path d="M2190 3500 l0 -1090 1310 0 1310 0 0 1090 0 1090 -1310 0 -1310 0 0
-1090z"/>
<path d="M2190 6015 l0 -545 1310 0 1310 0 0 545 0 545 -1310 0 -1310 0 0
-545z"/>
<path d="M2190 985 l0 -545 1310 0 1310 0 0 545 0 545 -1310 0 -1310 0 0 -545z"/>
</g>
</svg>
